HIERARCHY
ROOT hip
{
	OFFSET 0.000000 0.000000 0.000000 
	CHANNELS 6 Xposition Yposition Zposition Xrotation Zrotation Yrotation
	JOINT abdomen
	{
		OFFSET 0.000000 3.402643 0.000000 
		CHANNELS 3 Xrotation Zrotation Yrotation
		JOINT chest
		{
			OFFSET 0.000000 8.438565 -0.680529 
			CHANNELS 3 Xrotation Zrotation Yrotation
			JOINT neck
			{
				OFFSET 0.000000 10.207942 -0.272212 
				CHANNELS 3 Xrotation Zrotation Yrotation
				JOINT head
				{
					OFFSET 0.000000 3.130431 0.000000 
					CHANNELS 3 Xrotation Zrotation Yrotation
					End Site
					{
						OFFSET 0.000000 3.130435 0.000000 
					}
				}
			}
			JOINT lCollar
			{
				OFFSET 3.470700 6.669187 -0.816635 
				CHANNELS 3 Yrotation Zrotation Xrotation
				JOINT lShldr
				{
					OFFSET 3.198488 0.000000 0.000000 
					CHANNELS 3 Zrotation Yrotation Xrotation
					JOINT lForeArm
					{
						OFFSET 10.139888 0.000000 0.000000 
						CHANNELS 3 Yrotation Zrotation Xrotation
						JOINT lHand
						{
							OFFSET 8.370511 0.000000 0.000000 
							CHANNELS 3 Zrotation Yrotation Xrotation
							End Site
							{
								OFFSET 4.083176 0.000000 0.000000 
							}
						}
					}
				}
			}
			JOINT rCollar
			{
				OFFSET -3.470700 6.669187 -0.816635 
				CHANNELS 3 Yrotation Zrotation Xrotation
				JOINT rShldr
				{
					OFFSET -3.198488 0.000000 0.000000 
					CHANNELS 3 Zrotation Yrotation Xrotation
					JOINT rForeArm
					{
						OFFSET -10.139888 0.000000 0.000000 
						CHANNELS 3 Yrotation Zrotation Xrotation
						JOINT rHand
						{
							OFFSET -8.370511 0.000000 0.000000 
							CHANNELS 3 Zrotation Yrotation Xrotation
							End Site
							{
								OFFSET -4.083176 0.000000 0.000000 
							}
						}
					}
				}
			}
		}
	}
	JOINT lThigh
	{
		OFFSET 5.308129 -1.633274 1.361059 
		CHANNELS 3 Xrotation Zrotation Yrotation
		JOINT lShin
		{
			OFFSET -2.041588 -20.007561 0.000000 
			CHANNELS 3 Xrotation Zrotation Yrotation
			JOINT lFoot
			{
				OFFSET 0.000000 -19.190928 -1.224953 
				CHANNELS 3 Xrotation Yrotation Zrotation
				End Site
				{
					OFFSET 0.000000 -2.449906 4.627600 
				}
			}
		}
	}
	JOINT rThigh
	{
		OFFSET -5.308129 -1.633274 1.361059 
		CHANNELS 3 Xrotation Zrotation Yrotation
		JOINT rShin
		{
			OFFSET 2.041588 -20.007561 0.000000 
			CHANNELS 3 Xrotation Zrotation Yrotation
			JOINT rFoot
			{
				OFFSET 0.000000 -19.190928 -1.224953 
				CHANNELS 3 Xrotation Yrotation Zrotation
				End Site
				{
					OFFSET 0.000000 -2.449906 4.627600 
				}
			}
		}
	}
}
MOTION
Frames: 15
Frame Time: 0.033333
-0.543205 50.497890 1.768870 -3.662140 -0.233896 0.083329 0.000000 0.000000 0.000000 0.722658 0.126943 -0.174158 3.741059 -0.133842 -0.182737 5.937500 0.019510 0.116282 0.614831 11.129086 -1.484092 6.476223 13.553741 -6.762880 -8.685308 -4.193766 2.674829 6.840461 0.856799 3.593797 -0.848156 -9.853695 -1.180580 -5.271743 -11.551574 -3.620051 -0.880757 3.329370 2.573746 -11.864712 3.751967 4.891531 4.267015 7.539468 2.394908 8.735504 -2.839324 20.136049 -6.882317 0.271404 -4.163813 3.104198 -5.526864 -6.475100 9.759082 3.403037 -10.417835 -5.904943 -0.211331 3.763343 
-0.535151 50.514378 1.780484 -3.701193 -0.194905 0.110264 0.000000 0.000000 0.000000 0.742189 0.097648 -0.154968 3.751083 -0.197230 -0.111862 5.927711 0.243874 0.076493 0.563108 11.091275 -1.468559 6.384722 13.485314 -6.896196 -8.704053 -4.155169 2.669282 7.008986 0.819065 3.418940 -0.791879 -9.942928 -1.177548 -5.061346 -11.707967 -3.855583 -0.844323 3.162811 2.566877 -12.058463 3.855762 4.813738 4.519764 7.478688 2.357883 8.354999 -2.771783 19.960054 -6.727446 0.256914 -4.093690 3.181694 -5.545332 -6.475355 9.664675 3.385547 -10.523412 -5.791487 -0.201146 3.787864 
-0.527221 50.494617 1.798002 -3.681658 -0.175418 0.079647 0.000000 0.000000 0.000000 0.703126 0.078119 -0.194340 3.721534 -0.171134 -0.156895 6.220693 0.165872 0.129817 0.579899 11.090852 -1.502845 6.363764 13.524133 -6.975468 -8.780429 -4.076440 2.666199 6.883246 0.947725 3.385968 -0.791791 -9.913033 -1.187089 -5.137709 -11.619301 -3.968472 -0.863934 3.144216 2.557056 -11.698663 3.900730 5.065293 4.206236 7.419122 2.294324 8.921381 -2.822325 20.427731 -6.992923 0.261007 -4.126998 3.219977 -5.592227 -6.479120 9.591817 3.333658 -10.570719 -5.902564 -0.190317 3.857767 
-0.518664 50.444534 1.810549 -3.789222 -0.526191 0.132504 0.000000 0.000000 0.000000 0.751985 0.527298 -0.256661 3.771323 -0.240735 -0.223380 6.289036 0.273214 0.057317 0.462394 11.201480 -1.438811 6.221842 13.416676 -7.157590 -8.642898 -4.051332 2.666650 6.909172 0.998383 3.706677 -0.732563 -9.816814 -1.132480 -5.295717 -11.774750 -3.980678 -0.680047 3.042867 2.558296 -11.637215 4.002954 4.501493 3.378176 7.782241 2.145475 10.571319 -2.684452 18.770033 -7.846094 0.304588 -4.299275 3.267707 -5.404861 -6.529406 9.800227 3.365285 -10.300790 -6.076054 -0.223953 3.983449 
-0.507465 50.495754 1.821836 -3.710983 -0.282609 0.096455 0.000000 0.000000 0.000000 0.683595 0.126944 -0.203542 3.828387 -0.011270 -0.344373 6.201159 -0.185384 0.095668 0.471264 11.435358 -1.546086 6.053560 13.358949 -7.177683 -8.780429 -4.076440 2.666199 6.689456 0.925080 3.494211 -0.734949 -9.610709 -1.239707 -5.316775 -11.716384 -3.891595 -0.932208 3.155134 2.559431 -11.805149 4.157557 4.219925 4.079088 7.506464 2.353253 9.216186 -2.804845 20.341654 -7.113445 0.270141 -4.124279 3.220268 -5.485455 -6.439360 9.690648 3.354223 -10.621088 -5.874053 -0.200837 3.863458 
-0.491611 50.495506 1.822265 -3.652365 -0.194916 0.041739 0.000000 0.000000 0.000000 0.664063 0.009765 -0.185432 3.788696 0.057555 -0.440858 6.249943 -0.400053 0.084801 0.521975 11.297181 -1.571824 6.118381 13.308706 -7.398592 -8.914432 -3.957620 2.666657 6.449627 0.860283 4.093238 -0.843951 -9.539830 -1.278908 -5.386051 -11.618542 -3.848714 -0.882797 3.202509 2.569390 -11.633205 3.807439 4.794646 4.476477 7.414515 2.302559 8.384809 -2.793326 20.386330 -6.758871 0.237943 -4.262746 3.159320 -5.598104 -6.490885 9.695017 3.415636 -10.519280 -5.936635 -0.191632 3.814965 
-0.496389 50.489212 1.836610 -3.759812 -0.282594 -0.088851 0.000000 0.000000 0.000000 0.703126 0.087884 -0.194219 3.769712 -0.031187 -0.296882 6.562495 -0.126873 0.092412 0.469042 11.015399 -1.498834 6.467890 13.337081 -7.164505 -8.721722 -4.077871 2.668925 6.771729 0.715218 3.666449 -0.703752 -9.514315 -1.191634 -5.378329 -11.579981 -3.722129 -0.988367 3.312254 2.566836 -11.908497 3.954468 4.576348 4.303782 7.476537 2.339173 8.992635 -2.823138 20.394005 -7.094675 0.252260 -4.196308 3.277669 -5.512645 -6.431031 9.680477 3.334413 -10.428075 -5.925688 -0.214151 3.868862 
-0.488462 50.503052 1.839592 -3.759788 -0.194892 -0.143443 0.000000 0.000000 0.000000 0.693359 -0.019530 -0.166255 3.848184 -0.112695 -0.332088 6.445311 -0.068311 -0.036488 0.517600 10.935908 -1.509648 6.375942 13.210001 -7.307268 -8.779608 -4.038332 2.661656 6.865098 0.926945 3.777634 -0.630066 -9.633217 -1.194967 -5.242010 -11.678526 -3.661063 -0.821777 3.347898 2.572467 -11.763550 3.847210 5.071789 4.955719 7.386332 2.355914 7.856148 -2.780431 20.274694 -6.629762 0.252028 -4.286959 3.309703 -5.605186 -6.448886 9.597302 3.356979 -10.393588 -5.865792 -0.190511 3.825310 
-0.472229 50.505196 1.834848 -3.779317 -0.185143 -0.183083 0.000000 0.000000 0.000000 0.742188 0.009765 -0.175653 3.780549 -0.293667 -0.319293 6.611325 0.107357 -0.120922 0.501308 10.672698 -1.465619 6.537309 13.229490 -7.111760 -8.722814 -4.125661 2.672218 6.677152 0.963413 3.387155 -0.682618 -9.710679 -1.155568 -5.109275 -11.551357 -3.891589 -1.067362 3.264779 2.567552 -11.745983 4.014877 5.287381 4.752608 7.329688 2.311337 8.260290 -2.823115 20.480595 -6.789732 0.244800 -4.153241 3.318893 -5.673057 -6.544021 9.624076 3.384501 -10.262826 -5.846188 -0.200880 3.841847 
-0.451967 50.491978 1.828958 -3.701217 -0.282612 -0.235625 0.000000 0.000000 0.000000 0.722658 0.117178 -0.203580 3.595160 -0.251290 -0.335860 6.835933 -0.126893 -0.054678 0.517201 10.652619 -1.511157 6.500470 13.298656 -6.987104 -8.724452 -4.192803 2.672931 6.594122 0.742603 2.992269 -0.800223 -9.746853 -1.198965 -4.937592 -11.443936 -4.106581 -0.902723 3.164396 2.558893 -11.710492 3.929267 4.898146 4.519880 7.400567 2.310187 8.493823 -2.822202 20.758259 -6.847854 0.264501 -4.316038 3.173114 -5.654510 -6.535058 9.755937 3.455001 -10.014412 -5.917082 -0.202249 3.831401 
-0.446430 50.502052 1.819734 -3.710986 -0.292354 -0.234945 0.000000 0.000000 0.000000 0.732422 0.068354 -0.213958 3.662983 -0.126905 -0.402077 6.796872 -0.107368 -0.035676 0.467721 10.761550 -1.481300 6.423237 13.328801 -6.903284 -8.969138 -4.204912 2.677914 6.517039 0.874523 3.103237 -0.753080 -9.620744 -1.175750 -4.998959 -11.561219 -4.006423 -0.834073 3.191921 2.567563 -11.594847 3.819927 5.069952 4.482166 7.421787 2.332210 8.562807 -2.793601 20.628773 -6.885232 0.250182 -4.205394 3.180213 -5.610068 -6.491498 9.709451 3.422009 -10.117533 -5.816621 -0.188632 3.814932 
-0.436993 50.497517 1.808446 -3.779331 -0.243610 -0.188986 0.000000 0.000000 0.000000 0.761719 0.000000 -0.292969 3.760359 -0.124059 -0.441358 7.001952 0.068333 0.027386 0.310745 10.863454 -1.398208 6.204560 13.524696 -7.051655 -9.083238 -4.067819 2.671625 6.454844 0.929136 3.037876 -0.778693 -9.727674 -1.083315 -4.820625 -11.639863 -4.083972 -0.356105 3.134339 2.561498 -11.395648 3.638125 4.826204 4.345651 7.343703 2.245908 8.970368 -2.752572 20.487843 -7.095318 0.274324 -4.111514 3.318536 -5.672459 -6.563722 9.583188 3.402840 -10.195970 -5.831273 -0.196460 3.886188 
-0.431332 50.502052 1.800595 -3.769566 -0.243612 -0.276918 0.000000 0.000000 0.000000 0.771484 0.000000 -0.263672 3.732098 -0.265417 -0.424672 7.041004 0.224526 -0.094015 0.386824 10.773658 -1.404791 6.183390 13.485430 -7.120807 -8.975050 -4.042047 2.670866 6.502038 0.658220 3.183052 -0.750814 -9.767530 -1.084899 -4.810163 -11.620267 -4.113685 -0.522453 3.127436 2.566135 -11.457788 3.545655 5.067048 4.643037 7.316681 2.291188 8.375693 -2.811591 20.600567 -6.838308 0.253928 -4.181771 3.276904 -5.725780 -6.530373 9.573139 3.392914 -9.816954 -5.762292 -0.190634 3.866648 
-0.422019 50.503307 1.781264 -3.720745 -0.272861 -0.275225 0.000000 0.000000 0.000000 0.732422 -0.039059 -0.234881 3.886117 0.022142 -0.577411 6.777328 -0.244017 -0.011751 0.364361 11.174615 -1.465558 5.774602 13.418258 -7.347917 -9.207941 -3.959547 2.662027 6.437331 0.898619 3.595722 -0.703754 -9.396722 -1.169899 -5.029120 -11.795389 -4.025375 -0.699437 3.052961 2.559145 -11.573260 3.792075 4.650964 4.754170 7.362317 2.354135 8.006627 -2.862178 20.650934 -6.622942 0.248016 -4.245914 3.154110 -5.625003 -6.414259 9.645910 3.326642 -10.265512 -5.729158 -0.194292 3.907276 
-0.401882 50.504936 1.770983 -3.789103 -0.263096 -0.314607 0.000000 0.000000 0.000000 0.791016 0.000000 -0.234376 3.916839 -0.170353 -0.567646 6.757812 -0.058563 -0.134832 0.386204 10.920082 -1.427325 5.938902 13.338442 -7.514966 -8.963064 -3.937683 2.657403 6.441835 0.830408 3.634777 -0.624739 -9.672234 -1.108560 -4.724271 -11.992013 -4.041442 -0.397320 3.008119 2.559383 -11.753896 3.710831 4.613435 4.840034 7.310032 2.298831 7.874926 -2.818814 20.876404 -6.500449 0.256042 -4.294240 3.130488 -5.705928 -6.531155 9.793170 3.415838 -10.054070 -5.754308 -0.194978 3.854037 
